<svg width="49" height="24" viewBox="0 0 49 24" fill="none" xmlns="http://www.w3.org/2000/svg">
<g clip-path="url(#clip0_509_100861)">
<path fill-rule="evenodd" clip-rule="evenodd" d="M7.52165 13.6033C6.20765 13.6264 5.36957 13.1074 5.31101 11.9634C5.28905 11.534 5.29601 11.1664 5.31689 10.8907C5.44409 9.21887 6.49733 8.13611 7.65545 7.90523C9.09617 7.61807 10.0559 8.27435 10.0559 10.1533C10.0559 11.423 9.70205 13.5653 7.52165 13.6033ZM18.8005 16.2102C17.2407 16.2102 15.6012 15.2509 15.5236 13.456C13.7496 15.3333 11.0143 16.2278 7.52165 16.2278C3.99893 16.2278 2.52761 13.8262 2.52761 11.9554C2.61669 5.71877 2.47434 3.38242 2.44512 2.90282V2.90282C2.44253 2.86039 2.44083 2.83249 2.44025 2.81771L2.43963 2.80146C2.43063 2.56427 2.41716 2.20983 2.19161 2.18567C2.05157 2.17067 1.96109 2.21351 1.80005 2.41403C1.55861 2.73479 1.07105 2.86187 0.774535 2.69039C0.416215 2.48315 0.349375 2.02559 0.530695 1.60451C1.03385 0.48167 1.84049 -0.0151296 2.92745 0.000350438C4.80557 0.0271104 5.34437 1.25375 5.34437 2.78615C5.34437 2.78615 5.30261 4.99367 5.30261 6.23675C5.96705 5.69531 6.94313 5.11463 8.57357 5.11463C11.9685 5.11463 14.1237 9.31751 11.9091 13.3387C14.7474 12.0297 15.3401 9.77514 15.4504 7.53656L15.4401 6.78032C15.4401 5.93276 15.9868 5.21492 16.8377 5.21492C17.6886 5.21492 18.2538 5.98148 18.2236 6.79064C18.1215 9.51561 18.0802 11.3092 18.0802 12.2582C18.0802 12.8076 18.3798 13.6493 19.2669 13.6493C21.0036 13.6493 21.5745 12.2882 21.7093 9.08922C21.7163 7.89633 21.7225 6.89949 21.7225 6.89949C20.9353 6.89949 20.5476 6.48597 20.5476 5.96925C20.5476 5.45241 20.958 4.97433 21.6317 4.97433C21.6317 4.97433 21.633 3.17721 21.633 2.43297C21.633 1.58529 22.2909 0.882449 23.1418 0.882449C23.9928 0.882449 24.6685 1.58529 24.6685 2.43297C24.6685 2.71412 24.6578 3.04201 24.6459 3.40418V3.40424V3.40431V3.40439C24.6307 3.86762 24.6137 4.38694 24.615 4.93629C24.6307 4.9361 24.6727 4.93596 24.7383 4.93573C24.9689 4.93494 25.4911 4.93314 26.1857 4.92501C27.0132 4.91529 27.3503 5.37753 27.3503 5.95629C27.3503 6.53505 26.9047 6.93897 26.3238 6.94137C25.7854 6.94353 24.5961 6.93693 24.5961 6.93693C24.5419 8.65101 24.4908 10.7175 24.4908 12.3713C24.4908 12.9677 24.9024 13.6493 25.8987 13.6493C27.9082 13.6493 28.6587 11.8634 28.8095 8.47392C28.7978 6.11462 28.7696 4.74773 28.7484 3.71767C28.7335 2.99531 28.722 2.4386 28.722 1.82142C28.722 0.973862 29.4278 0.216182 30.2786 0.216182C31.1297 0.216182 31.7575 0.896462 31.7575 1.74402C31.7575 2.39695 31.7312 3.16018 31.6955 4.20114L31.6955 4.20126L31.6955 4.20145C31.635 5.96192 31.5473 8.51669 31.5129 12.6755C31.5083 13.2292 31.7786 13.6192 32.4958 13.6192C34.4122 13.6192 34.9434 11.5433 35.1121 8.64385C35.1131 8.50609 35.1143 8.37124 35.1156 8.23879L35.1156 8.23351C35.1182 7.95838 35.1207 7.69352 35.1207 7.43404C35.1207 6.58648 35.6853 5.90044 36.5365 5.90044C37.3874 5.90044 37.8877 6.60328 37.8877 7.45084C37.8877 8.0546 37.868 8.6193 37.8476 9.20189L37.8476 9.20215V9.20228V9.20242V9.20254C37.8297 9.71678 37.8112 10.245 37.8055 10.8263C37.7906 12.3226 38.3018 13.6407 39.547 13.6371C40.7425 13.6336 42.0554 13.1303 42.0873 10.5675C42.0962 9.85507 42.086 9.30785 42.0758 8.75562V8.7555V8.75535V8.75518V8.75492V8.75469V8.75449C42.0682 8.34575 42.0605 7.93421 42.0605 7.45084C42.0605 6.60328 42.6512 5.90044 43.5023 5.90044C44.3529 5.90044 44.9441 6.60328 44.9441 7.45084C44.9441 7.95758 44.9256 8.46227 44.9052 9.02166V9.02172V9.02179V9.02189C44.8797 9.71745 44.8511 10.4976 44.8511 11.4714C44.8511 11.4714 44.7989 15.021 44.9236 15.8067C45.314 15.6767 45.8773 15.2951 46.4739 14.3703C46.8341 13.8119 47.5228 13.6923 47.9473 13.9395C48.5315 14.2799 48.5107 14.9452 48.2922 15.4312C47.7282 16.6858 46.9949 17.4537 45.1407 18.0892C45.1465 20.2173 44.9982 23.3568 41.0638 23.9243C37.6943 24.4102 36.1702 22.4561 36.1652 20.7934C36.1571 18.1679 38.7809 17.4033 42.5681 16.4496L42.4467 15.1485C42.4467 15.1485 41.6032 16.2545 39.4658 16.2011C37.8171 16.1599 36.6829 15.3814 35.9952 14.2818C35.2016 15.585 33.9579 16.2157 32.0842 16.2157C30.8499 16.2157 29.6737 15.5637 29.0912 14.6185C28.2323 15.6461 27.0345 16.2021 25.4247 16.2021C24.0219 16.2021 22.9855 15.7178 22.3648 14.9618C21.5641 15.8567 20.4106 16.2102 18.8005 16.2102ZM42.8158 18.5445C40.9015 18.9576 38.5033 19.561 38.5311 20.7399C38.5573 21.8453 39.6987 22.0464 40.6502 21.8499C42.6264 21.4414 42.856 20.2522 42.8158 18.5445ZM18.3892 2.43731C18.3892 1.58159 17.6945 0.88979 16.8355 0.88979C15.9765 0.88979 15.2819 1.58159 15.2819 2.43731C15.2819 3.29291 15.9765 3.98483 16.8355 3.98483C17.6945 3.98483 18.3892 3.29291 18.3892 2.43731Z" fill="#FF6116"/>
</g>
<defs>
<clipPath id="clip0_509_100861">
<rect width="48" height="24" fill="white" transform="translate(0.433594)"/>
</clipPath>
</defs>
</svg>
